<svg width="760" height="280" version="1.1" viewBox="0 0 201.08 74.083" xmlns="http://www.w3.org/2000/svg"><g transform="matrix(.96923 0 0 .96891 1.482 .68896)" style="stroke-width:1.0319"><g style="stroke-width:1.0319"><path d="m26.374 67.413c-3.4951-0.42266-7.9384-2.1939-10.632-4.238-8.5514-6.4907-11.592-17.092-7.7518-27.032 1.5656-4.0525 5.6268-8.7805 9.0573-10.544 3.3399-1.7171 5.2736-2.1648 9.269-2.1459 3.055 0.01448 3.7917 0.10558 5.5266 0.68338 5.4257 1.807 10.023 6.0249 12.077 11.08 1.668 4.1049 1.8557 8.7571 0.52019 12.894l-0.7165 2.2193-0.31732-1.0586c-1.1802-3.9373-4.0521-6.2053-7.8603-6.2075-2.2818-0.0013-4.2392 0.84755-5.7113 2.4769-1.5211 1.6837-2.0776 3.1535-2.0604 5.442 0.01726 2.2939 0.6411 3.8486 2.1809 5.4353 1.5774 1.6254 3.171 2.2671 5.6297 2.2671 1.8276 0 2.2638-0.09693 3.488-0.77498 1.665-0.9222 2.8125-2.1911 4.3759-4.8386 3.8914-6.5898 3.9147-14.546 0.06164-21.084-1.1366-1.9285-4.9023-5.6984-6.8084-6.816-3.0098-1.7648-6.594-2.8611-9.6029-2.9373l-1.436-0.03637 1.5666-0.23714c3.3908-0.51327 9.1178 0.64792 12.645 2.5638 4.5285 2.4599 8.3758 6.6245 10.258 11.104 1.3699 3.2604 1.8185 5.5023 1.8185 9.0873 0 4.6619-1.1766 8.7434-3.5807 12.421-1.2997 1.988-4.7738 5.4621-6.7618 6.7618-4.2493 2.778-10.122 4.1326-15.236 3.5143z" style="fill-opacity:.64;stroke-width:1.0319"/><text x="54.418282" y="61.757832" style="fill:#01875f;font-family:'Segoe UI';font-size:29.46px;font-variant-ligatures:none;font-weight:bold;line-height:1.25;stroke-width:1.3054;stroke:#01875f" xml:space="preserve"><tspan x="54.418282" y="61.757832" style="fill:#01875f;font-family:sans-serif;font-weight:bold;stroke-width:1.3054;stroke:#01875f">AppHutx</tspan></text></g></g></svg>
